<?xml version="1.0" encoding="UTF-8"?>
<svg id="Layer_1" data-name="Layer 1" xmlns="http://www.w3.org/2000/svg" viewBox="0 0 1920 1080">
  <defs>
    <style>
      .cls-1 {
        fill: #f870e4;
      }

      .cls-2 {
        fill: #c879f6;
      }

      .cls-3 {
        fill: #28a8f6;
      }

      .cls-4 {
        fill: #f84e2d;
      }

      .cls-5 {
        fill: #fff;
      }

      .cls-6 {
        letter-spacing: 0em;
      }

      .cls-7 {
        fill: #f8a726;
      }

      .cls-8 {
        font-family: Cy-SemiBold, Cy;
        font-size: 155.36px;
        font-weight: 600;
      }

      .cls-9 {
        letter-spacing: -.01em;
      }

      .cls-10 {
        letter-spacing: -.02em;
      }

      .cls-11 {
        fill: #5df893;
      }
    </style>
  </defs>
  <rect class="cls-7" x="22.68" y="23.45" width="125" height="125"/>
  <rect class="cls-4" x="175.32" y="23.45" width="125" height="125"/>
  <rect class="cls-11" x="22.32" y="170.45" width="125" height="125"/>
  <rect class="cls-3" x="175.32" y="170.45" width="125" height="125"/>
  <rect class="cls-2" x="22.32" y="317.45" width="125" height="125"/>
  <rect class="cls-1" x="175.32" y="317.45" width="125" height="125"/>
  <g>
    <rect class="cls-7" x="750.56" y="23.45" width="751.59" height="249.41" transform="translate(2252.72 296.31) rotate(180)"/>
    <g>
      <rect x="316.23" y="23.45" width="521.34" height="249.41"/>
      <g>
        <path class="cls-5" d="M445.28,119.99h-32.27l-18.36,87.11h-34.49l18.36-87.11h-31.87l5.64-26.86h98.63l-5.64,26.86Z"/>
        <path class="cls-5" d="M529.92,119.99h-36.64l-3.42,16.61h34.33l-5.64,26.86h-34.33l-3.58,16.77h39.18l-5.72,26.86h-73.52l24.08-113.97h70.97l-5.72,26.86Z"/>
        <path class="cls-5" d="M668.37,207.1h-33.86l14.23-67.08,3.73-17.09h-.64l-5.88,14.15-32.11,70.02h-31.55l-4.05-66.04c-.32-4.45-.48-10.49-.48-18.12h-.72c-1.54,11.71-3.31,22.41-5.32,32.11l-11.05,52.06h-30.44l24.08-113.97h48.16l3.97,68.11c0,3.44-.13,7.02-.4,10.73h.48c.9-2.54,1.83-5.21,2.78-7.99s1.93-5.29,2.94-7.51l27.82-63.34h52.45l-24.16,113.97Z"/>
        <path class="cls-5" d="M811.23,142.13c0,12.5-2.74,24.13-8.23,34.89-5.48,10.76-13.09,18.94-22.81,24.56-9.72,5.62-21.29,8.42-34.69,8.42-10.17,0-18.93-2.08-26.27-6.24-7.34-4.16-12.94-10.03-16.81-17.6-3.87-7.58-5.8-16.24-5.8-25.99,0-12.61,2.78-24.27,8.34-34.97,5.56-10.7,13.22-18.89,22.97-24.56,9.75-5.67,21.06-8.5,33.94-8.5,15.31,0,27.37,4.45,36.16,13.35,8.79,8.9,13.19,21.11,13.19,36.64ZM774.75,143.24c0-6.94-1.44-12.23-4.33-15.86-2.89-3.63-7.03-5.44-12.44-5.44-4.98,0-9.33,1.67-13.03,5.01-3.71,3.34-6.61,7.96-8.7,13.87-2.09,5.91-3.14,12.09-3.14,18.56,0,7.05,1.46,12.36,4.37,15.94,2.91,3.58,6.94,5.36,12.08,5.36,4.77,0,9.03-1.48,12.8-4.45,3.76-2.97,6.77-7.48,9.02-13.55,2.25-6.07,3.38-12.54,3.38-19.43Z"/>
      </g>
    </g>
  </g>
  <text class="cls-8" transform="translate(856.24 205.72)"><tspan class="cls-10" x="0" y="0">L</tspan><tspan x="75.97" y="0">ectu</tspan><tspan class="cls-9" x="397.73" y="0">r</tspan><tspan class="cls-6" x="446.36" y="0">es</tspan></text>
  <g>
    <rect class="cls-4" x="401.67" y="489.35" width="87.18" height="114"/>
    <rect class="cls-7" x="316.06" y="331.36" width="87.01" height="272"/>
    <rect class="cls-1" x="488.85" y="489.35" width="87.18" height="114"/>
    <rect class="cls-3" x="663.21" y="489.35" width="87.18" height="114"/>
    <rect class="cls-11" x="750.39" y="489.35" width="87.18" height="114"/>
    <rect class="cls-2" x="576.03" y="489.35" width="87.18" height="114"/>
    <g>
      <rect x="316.23" y="331.36" width="521.34" height="249.41"/>
      <g>
        <path class="cls-5" d="M445.28,427.9h-32.27l-18.36,87.11h-34.49l18.36-87.11h-31.87l5.64-26.86h98.63l-5.64,26.86Z"/>
        <path class="cls-5" d="M529.92,427.9h-36.64l-3.42,16.61h34.33l-5.64,26.86h-34.33l-3.58,16.77h39.18l-5.72,26.86h-73.52l24.08-113.97h70.97l-5.72,26.86Z"/>
        <path class="cls-5" d="M668.37,515.01h-33.86l14.23-67.08,3.73-17.09h-.64l-5.88,14.15-32.11,70.02h-31.55l-4.05-66.04c-.32-4.45-.48-10.49-.48-18.12h-.72c-1.54,11.71-3.31,22.41-5.32,32.11l-11.05,52.06h-30.44l24.08-113.97h48.16l3.97,68.11c0,3.44-.13,7.02-.4,10.73h.48c.9-2.54,1.83-5.21,2.78-7.99s1.93-5.29,2.94-7.51l27.82-63.34h52.45l-24.16,113.97Z"/>
        <path class="cls-5" d="M811.23,450.04c0,12.5-2.74,24.13-8.23,34.89-5.48,10.76-13.09,18.94-22.81,24.56-9.72,5.62-21.29,8.42-34.69,8.42-10.17,0-18.93-2.08-26.27-6.24-7.34-4.16-12.94-10.03-16.81-17.6-3.87-7.58-5.8-16.24-5.8-25.99,0-12.61,2.78-24.27,8.34-34.97,5.56-10.7,13.22-18.89,22.97-24.56,9.75-5.67,21.06-8.5,33.94-8.5,15.31,0,27.37,4.45,36.16,13.35,8.79,8.9,13.19,21.11,13.19,36.64ZM774.75,451.15c0-6.94-1.44-12.23-4.33-15.86-2.89-3.63-7.03-5.44-12.44-5.44-4.98,0-9.33,1.67-13.03,5.01-3.71,3.34-6.61,7.96-8.7,13.87-2.09,5.91-3.14,12.09-3.14,18.56,0,7.05,1.46,12.36,4.37,15.94,2.91,3.58,6.94,5.36,12.08,5.36,4.77,0,9.03-1.48,12.8-4.45,3.76-2.97,6.77-7.48,9.02-13.55,2.25-6.07,3.38-12.54,3.38-19.43Z"/>
      </g>
    </g>
  </g>
</svg>