<?xml version="1.0" encoding="UTF-8"?>
<svg id="Layer_1" data-name="Layer 1" xmlns="http://www.w3.org/2000/svg" viewBox="0 0 1336.55 211.87">
  <defs>
    <style>
      .cls-1 {
        fill: #fff;
      }
    </style>
  </defs>
  <g>
    <path class="cls-1" d="M238.58,54.78h-36.52V20.92h109.99v33.86h-36.73v132.12h-36.73V54.78Z"/>
    <path class="cls-1" d="M362.13,190.45c-35.06,0-58.65-25.45-58.65-61.08s23.79-61.3,58.23-61.3c31.93,0,53.01,25.01,53.01,60.86,0,3.76-.21,7.75-.83,11.07h-72.84c2.5,11.07,9.81,16.82,22.12,16.82,10.02,0,16.7-3.1,22.75-11.29l20.66,23.24c-11.27,15.49-25.88,21.69-44.46,21.69ZM340.84,117.63h38.4c-1.46-10.4-8.14-17.26-18.37-17.26-10.85,0-17.53,6.2-20.04,17.26Z"/>
    <path class="cls-1" d="M587.53,186.91h-36.32v-72.15c0-7.97-5.22-13.28-11.69-13.28-6.89,0-11.9,5.31-11.9,13.28v72.15h-36.32v-72.15c0-7.97-5.22-13.28-11.9-13.28s-11.9,5.31-11.9,13.28v72.15h-36.32v-73.25c0-27,21.29-45.59,47.79-45.59,13.15,0,23.58,4.87,31.1,13.28,7.72-8.41,18.58-13.28,31.72-13.28,26.51,0,45.71,18.59,45.71,45.59v73.25Z"/>
    <path class="cls-1" d="M604.64,129.37c0-35.85,24.42-61.3,58.65-61.3s58.65,25.45,58.65,61.3-24.42,61.08-58.65,61.08-58.65-25.45-58.65-61.08ZM685.62,128.7c0-16.38-8.77-27.22-22.33-27.22s-22.33,10.84-22.33,27.22,8.77,27.88,22.33,27.88,22.33-11.07,22.33-27.88Z"/>
    <path class="cls-1" d="M746.14,20.92h17.11v149.83h67.41v16.16h-84.53V20.92Z"/>
    <path class="cls-1" d="M893.69,190.45c-32.56,0-56.56-25.89-56.56-60.42s24-60.2,56.35-60.2,52.8,25.89,52.8,60.2c0,2.21-.21,5.98-.42,7.75h-91.21c2.92,21.91,18.16,36.74,39.24,36.74,14.4,0,25.67-6.42,34.02-17.48l9.81,10.62c-10.44,14.83-25.67,22.79-44.04,22.79ZM854.66,122.73h74.93c-1.25-21.47-15.65-37.18-36.32-37.18s-35.9,15.05-38.61,37.18Z"/>
    <path class="cls-1" d="M1052.52,104.13c-7.1-11.07-18.58-18.59-33.39-18.59-23.17,0-39.86,18.59-39.86,44.48s16.7,44.48,39.86,44.48c15.44,0,27.13-8.41,34.23-19.92l10.23,10.62c-8.97,14.83-25.05,25.23-44.46,25.23-33.6,0-56.98-25.89-56.98-60.42s24.42-60.2,56.98-60.2c18.37,0,33.81,8.63,43.83,23.24l-10.44,11.07Z"/>
    <path class="cls-1" d="M1087.36,148.84v-59.98h-12.94v-15.49h12.94v-30.32h16.7v30.32h35.9v15.49h-35.9v58.21c0,17.26,8.97,25.89,23.79,25.89,3.55,0,6.89-.44,9.6-1.55v15.49c-3.13,1.33-7.51,2.21-12.11,2.21-24.21,0-37.99-14.38-37.99-40.28Z"/>
    <path class="cls-1" d="M1150.6,130.03c0-34.52,24.21-60.2,56.56-60.2s56.56,25.67,56.56,60.2-24,60.42-56.56,60.42-56.56-25.89-56.56-60.42ZM1246.82,130.03c0-25.67-16.7-44.48-39.65-44.48s-39.45,18.81-39.45,44.48,16.49,44.48,39.45,44.48,39.65-19.03,39.65-44.48Z"/>
    <path class="cls-1" d="M1336.56,73.37v15.71h-31.31v97.82h-16.7v-113.53h48Z"/>
  </g>
  <g>
    <g>
      <polygon class="cls-1" points="169.64 75.51 169.64 132.82 198.3 104.16 169.64 75.51"/>
      <polygon class="cls-1" points="100.45 6.32 71.79 34.98 129.11 34.98 100.45 6.32"/>
      <polygon class="cls-1" points="100.45 202.01 129.11 173.35 71.79 173.35 100.45 202.01"/>
      <polygon class="cls-1" points="2.6 104.16 31.26 132.82 31.26 75.51 2.6 104.16"/>
      <polygon class="cls-1" points="31.26 173.35 71.79 173.35 31.26 132.82 31.26 173.35"/>
      <polygon class="cls-1" points="169.64 173.35 169.64 132.82 129.11 173.35 169.64 173.35"/>
      <polygon class="cls-1" points="169.64 34.98 129.11 34.98 169.64 75.51 169.64 34.98"/>
      <polygon class="cls-1" points="31.26 34.98 31.26 75.51 71.79 34.98 31.26 34.98"/>
    </g>
    <rect class="cls-1" x="51.53" y="55.24" width="97.85" height="97.85"/>
  </g>
</svg>