<?xml version="1.0" encoding="UTF-8"?>
<svg id="Layer_1" data-name="Layer 1" xmlns="http://www.w3.org/2000/svg" viewBox="0 0 1383.99 210.38">
  <defs>
    <style>
      .cls-1 {
        fill: #043810;
      }

      .cls-2 {
        fill: #fff;
      }

      .cls-3 {
        fill: #4fea1c;
      }

      .cls-4 {
        fill: #10892c;
      }
    </style>
  </defs>
  <g>
    <path class="cls-3" d="M143.27,51.31c-12.66,10.36-23.56,23.29-31.85,38.56-2.28,4.21-4.3,8.49-6.07,12.83-1.78-4.33-3.8-8.61-6.08-12.83-8.28-15.26-19.19-28.19-31.85-38.56C75.67,31.18,88.8,13.58,105.36,0c16.56,13.58,29.69,31.18,37.91,51.31Z"/>
    <polygon points="105.36 200.77 105.36 200.77 105.36 200.77 105.36 200.77 105.36 200.77"/>
    <path class="cls-3" d="M105.35,200.77c-36.85-7.09-70.35-30.02-89.63-65.58C-3.57,99.62-4.51,59.04,9.64,24.28c21.03,4.05,40.97,13.26,57.79,27.02-6.19,15.14-9.62,31.71-9.62,49.08,0,20.23,4.63,39.37,12.88,56.43,8.26,17.07,20.14,32.05,34.65,43.95Z"/>
    <polygon points="105.36 200.77 105.36 200.77 105.36 200.77 105.36 200.77 105.36 200.77"/>
    <path class="cls-3" d="M194.99,135.19c-9.64,17.78-22.84,32.4-38.22,43.46-15.39,11.06-32.98,18.57-51.41,22.12,29.01-23.8,47.53-59.93,47.53-100.38,0-17.37-3.42-33.93-9.62-49.08,16.83-13.76,36.77-22.98,57.8-27.02,14.15,34.76,13.21,75.34-6.08,110.9Z"/>
    <polygon points="105.35 200.77 105.35 200.77 105.36 200.77 105.36 200.77 105.35 200.77"/>
    <path class="cls-4" d="M105.35,200.77c-14.51-11.9-26.39-26.89-34.65-43.95-8.26-17.06-12.88-36.2-12.88-56.43,0-17.37,3.42-33.93,9.62-49.08,12.66,10.36,23.56,23.29,31.85,38.56,2.28,4.21,4.3,8.49,6.08,12.83-13.22,32.27-12.49,67.44,0,98.08Z"/>
    <path class="cls-4" d="M152.89,100.38c0,40.46-18.52,76.58-47.53,100.38,6.33-15.54,9.64-32.24,9.64-49.14s-3.12-33.03-9.64-48.94c1.77-4.33,3.79-8.61,6.07-12.83,8.28-15.26,19.19-28.19,31.85-38.56,6.19,15.14,9.62,31.71,9.62,49.08Z"/>
    <path class="cls-1" d="M114.99,151.63c0,16.9-3.31,33.6-9.64,49.14h0c-12.48-30.64-13.21-65.81,0-98.08,6.51,15.9,9.64,32.51,9.64,48.94Z"/>
  </g>
  <g>
    <path class="cls-2" d="M237.39,98.97c0-37.92,26.44-65.03,63.53-65.03s63.53,27.11,63.53,65.03-26.44,65.03-63.53,65.03-63.53-27.11-63.53-65.03ZM340.34,98.81c0-25.78-15.63-43.74-39.42-43.74s-39.42,17.96-39.42,43.74,15.63,43.91,39.42,43.91,39.42-17.8,39.42-43.91Z"/>
    <path class="cls-2" d="M421.51,164c-11.98,0-22.29-4.82-26.44-11.98h-.5c.17,1.16.33,2.83.33,7.48v40.08h-23.12v-124.41h21.46v3.99c0,3.66-.17,5.49-.33,7.32h.5c5.49-8.48,16.13-13.97,29.11-13.97,24.12,0,41.58,18.79,41.58,45.74s-18.13,45.74-42.58,45.74ZM394.07,118.1c0,14.97,9.65,25.28,23.29,25.28s23.45-10.31,23.45-25.28-9.81-25.28-23.45-25.28-23.29,10.31-23.29,25.28Z"/>
    <path class="cls-2" d="M512.33,164c-27.28,0-46.24-19.29-46.24-45.74s19.13-45.74,45.9-45.74c25.28,0,42.25,19.13,42.25,45.74,0,2.33-.17,5.16-.67,7.32h-63.37c2.49,11.31,10.31,17.8,22.29,17.8,9.65,0,15.97-2.99,21.62-10.15l13.47,14.14c-8.82,11.48-20.62,16.63-35.26,16.63ZM490.21,110.78h41.25c-1.66-10.81-9.15-17.96-19.96-17.96s-18.96,6.82-21.29,17.96Z"/>
    <path class="cls-2" d="M596.82,72.53c21.29,0,36.76,13.64,36.76,34.26v54.55h-23.28v-55.22c0-7.65-5.82-13.31-13.31-13.31s-13.47,5.65-13.47,13.31v55.22h-23.28v-55.38c0-19.96,15.3-33.43,36.59-33.43Z"/>
    <path class="cls-2" d="M739.19,73.19c-7.48-11.31-20.29-18.13-34.76-18.13-23.45,0-39.58,17.96-39.58,43.74s16.13,43.91,39.58,43.91c14.47,0,27.11-6.99,34.59-18.13l15.63,13.97c-10.81,15.97-28.11,25.45-50.23,25.45-38.42,0-63.7-27.11-63.7-65.03s26.61-65.03,63.7-65.03c22.12,0,40.08,9.81,50.89,25.78l-16.13,13.47Z"/>
    <path class="cls-2" d="M758.99,130.41V36.6h23.28v91.48c0,9.48,5.65,13.64,13.97,13.64,1.83,0,3.16-.33,4.66-.67v20.29c-1.83.67-4.99,1.16-8.48,1.16-21.46,0-33.43-10.81-33.43-32.1Z"/>
    <path class="cls-2" d="M841.48,72.53c13.14,0,23.29,5.65,27.78,13.64h.67c-.17-1.33-.33-2.99-.33-7.65v-3.33h21.29v86.15h-21.29v-3.99c0-3.83.17-6.15.33-7.98h-.67c-4.99,8.98-15.63,14.64-28.77,14.64-24.62,0-41.91-18.79-41.91-45.74s18.3-45.74,42.91-45.74ZM868.76,117.93c0-14.8-9.81-25.11-23.45-25.11s-23.29,10.31-23.29,25.11,9.81,25.45,23.29,25.45,23.45-10.48,23.45-25.45Z"/>
    <path class="cls-2" d="M931.3,106.79l10.81,5.49c9.81,4.99,18.29,11.14,18.29,25.11,0,15.63-11.98,26.61-32.1,26.61-18.96,0-28.61-10.64-31.77-21.95l17.3-9.65c1.5,5.49,5.99,12.64,14.64,12.64,5.49,0,9.15-2.83,9.15-7.82,0-3.49-2.33-5.82-9.48-9.15l-9.15-4.49c-9.65-4.66-18.63-10.31-18.63-25.61,0-13.8,12.47-25.45,28.94-25.45s26.11,8.65,31.27,18.96l-16.13,9.65c-3.16-5.82-7.65-10.15-14.64-10.15-4.66,0-8.15,2.49-8.15,6.82,0,3.83,2.49,5.49,9.65,8.98Z"/>
    <path class="cls-2" d="M995.67,106.79l10.81,5.49c9.81,4.99,18.29,11.14,18.29,25.11,0,15.63-11.98,26.61-32.1,26.61-18.96,0-28.61-10.64-31.77-21.95l17.3-9.65c1.5,5.49,5.99,12.64,14.64,12.64,5.49,0,9.15-2.83,9.15-7.82,0-3.49-2.33-5.82-9.48-9.15l-9.15-4.49c-9.65-4.66-18.63-10.31-18.63-25.61,0-13.8,12.47-25.45,28.94-25.45s26.11,8.65,31.27,18.96l-16.13,9.65c-3.16-5.82-7.65-10.15-14.64-10.15-4.66,0-8.15,2.49-8.15,6.82,0,3.83,2.49,5.49,9.65,8.98Z"/>
    <path class="cls-2" d="M1073.34,74.69v20.12c-1.66-.5-3.16-.67-5.16-.67-7.82,0-12.97,3.83-12.97,13.64v53.56h-23.29v-56.88c0-20.46,11.48-30.94,32.27-30.94,3.66,0,7.15.5,9.15,1.16Z"/>
    <path class="cls-2" d="M1071.68,118.26c0-26.61,19.29-45.74,46.07-45.74s46.24,19.13,46.24,45.74-19.46,45.74-46.24,45.74-46.07-19.29-46.07-45.74ZM1140.53,117.93c0-14.8-9.15-25.11-22.79-25.11s-22.79,10.31-22.79,25.11,9.31,25.45,22.79,25.45,22.79-10.48,22.79-25.45Z"/>
    <path class="cls-2" d="M1165.81,118.26c0-26.61,19.29-45.74,46.07-45.74s46.24,19.13,46.24,45.74-19.46,45.74-46.24,45.74-46.07-19.29-46.07-45.74ZM1234.67,117.93c0-14.8-9.15-25.11-22.79-25.11s-22.79,10.31-22.79,25.11,9.31,25.45,22.79,25.45,22.79-10.48,22.79-25.45Z"/>
    <path class="cls-2" d="M1384.03,161.34h-23.29v-55.88c0-7.32-5.32-12.64-12.47-12.64s-12.31,5.32-12.31,12.64v55.88h-23.28v-55.88c0-7.32-5.32-12.64-12.47-12.64s-12.31,5.32-12.31,12.64v55.88h-23.29v-55.55c0-19.63,15.63-33.26,35.43-33.26,10.64,0,19.13,3.99,24.62,10.98,5.82-6.99,14.47-10.98,24.95-10.98,19.96,0,34.43,13.64,34.43,33.26v55.55Z"/>
  </g>
</svg>