<?xml version="1.0" encoding="UTF-8"?>
<svg id="Layer_1" data-name="Layer 1" xmlns="http://www.w3.org/2000/svg" viewBox="0 0 1288.55 211.87">
  <defs>
    <style>
      .cls-1 {
        fill: #fff;
      }
    </style>
  </defs>
  <g>
    <path class="cls-1" d="M263.07,65.72h-35.91v-33.29h108.13v33.29h-36.11v129.9h-36.11V65.72Z"/>
    <path class="cls-1" d="M384.54,199.11c-34.47,0-57.66-25.02-57.66-60.05s23.39-60.27,57.25-60.27c31.39,0,52.12,24.59,52.12,59.84,0,3.7-.21,7.62-.82,10.88h-71.61c2.46,10.88,9.64,16.54,21.75,16.54,9.85,0,16.41-3.05,22.37-11.1l20.31,22.85c-11.08,15.23-25.44,21.32-43.7,21.32ZM363.61,127.52h37.75c-1.44-10.23-8-16.97-18.06-16.97-10.67,0-17.24,6.09-19.7,16.97Z"/>
    <path class="cls-1" d="M606.14,195.62h-35.7v-70.93c0-7.83-5.13-13.06-11.49-13.06-6.77,0-11.7,5.22-11.7,13.06v70.93h-35.7v-70.93c0-7.83-5.13-13.06-11.7-13.06s-11.7,5.22-11.7,13.06v70.93h-35.7v-72.02c0-26.55,20.93-44.82,46.99-44.82,12.93,0,23.19,4.79,30.57,13.05,7.59-8.27,18.26-13.05,31.19-13.05,26.06,0,44.94,18.28,44.94,44.82v72.02Z"/>
    <path class="cls-1" d="M622.96,139.05c0-35.25,24.01-60.27,57.66-60.27s57.66,25.02,57.66,60.27-24.01,60.05-57.66,60.05-57.66-25.02-57.66-60.05ZM702.57,138.4c0-16.1-8.62-26.76-21.95-26.76s-21.95,10.66-21.95,26.76,8.62,27.42,21.95,27.42,21.95-10.88,21.95-27.42Z"/>
    <path class="cls-1" d="M882.11,72.25c-11.08-16.75-29.34-27.2-50.27-27.2-35.29,0-61.35,29.37-61.35,68.98s26.06,68.76,61.35,68.76c20.93,0,38.78-10.44,49.86-26.98l11.29,10.66c-13.34,20.02-34.88,32.64-61.15,32.64-45.96,0-78.59-36.34-78.59-85.08s33.45-85.08,78.59-85.08c26.47,0,48.42,12.84,61.97,33.07l-11.7,10.23Z"/>
    <path class="cls-1" d="M913.71,157.55V32.43h16.41v123.16c0,16.97,9.23,25.68,24.01,25.68,2.87,0,5.33-.43,7.59-1.09v15.45c-2.46.87-6.16,1.31-10.26,1.31-23.8,0-37.75-14.14-37.75-39.38Z"/>
    <path class="cls-1" d="M1024.3,80.52c20.93,0,35.91,11.31,40.63,23.5h.41c-.21-3.26-.41-6.31-.41-11.97v-8.05h15.39v111.62h-15.39v-10.23c0-5,.21-8.7.41-12.19h-.41c-5.13,14.58-20.72,25.68-41.04,25.89-33.45,0-54.78-25.46-54.78-59.4s22.57-59.18,55.19-59.18ZM1064.51,139.7c0-25.24-16.41-43.74-39.6-43.74s-39.19,18.5-39.19,43.74,16.83,43.74,39.19,43.74,39.6-18.71,39.6-43.74Z"/>
    <path class="cls-1" d="M1138.99,128.83l13.95,6.75c13.54,6.53,22.78,15.23,22.78,31.55,0,18.71-13.95,31.99-35.91,31.99s-33.65-13.49-36.93-29.16l12.93-7.4c2.05,10.88,11.08,21.32,25.03,21.32,10.88,0,18.47-5.88,18.47-16.75,0-7.83-5.13-13.06-16-18.28l-12.93-6.31c-13.54-6.53-22.98-14.8-22.98-31.55s13.75-30.46,32.83-30.46,30.57,11.1,35.5,25.24l-12.31,7.18c-3.28-10.01-11.29-17.62-22.78-17.62-10.26,0-17.24,6.53-17.24,15.45,0,8.27,4.92,12.84,15.59,18.06Z"/>
    <path class="cls-1" d="M1226.81,128.83l13.95,6.75c13.54,6.53,22.78,15.23,22.78,31.55,0,18.71-13.95,31.99-35.91,31.99s-33.65-13.49-36.93-29.16l12.93-7.4c2.05,10.88,11.08,21.32,25.03,21.32,10.87,0,18.47-5.88,18.47-16.75,0-7.83-5.13-13.06-16-18.28l-12.93-6.31c-13.54-6.53-22.98-14.8-22.98-31.55s13.75-30.46,32.83-30.46,30.57,11.1,35.5,25.24l-12.31,7.18c-3.28-10.01-11.29-17.62-22.78-17.62-10.26,0-17.24,6.53-17.24,15.45,0,8.27,4.92,12.84,15.59,18.06Z"/>
  </g>
  <path class="cls-1" d="M158.34,32.6H63.47L16.04,114.76l47.44,82.16h94.87l47.44-82.16-47.44-82.16ZM110.91,195.62l-70.03-40.43v-80.87l70.03-40.43,70.03,40.43v80.87l-70.03,40.43Z"/>
</svg>